/* XPM */
static char *_d8fbabc19c84083f058cf26b43b55d4u6dU2kxqcRz5awbn[] = {
/* columns rows colors chars-per-pixel */
"64 64 48 1 ",
"  c #202020",
". c #222222",
"X c #272727",
"o c #282828",
"O c #2C2C2C",
"+ c gray19",
"@ c #353535",
"# c #393939",
"$ c #3F3F3F",
"% c #434343",
"& c gray28",
"* c #484848",
"= c gray31",
"- c #515151",
"; c gray34",
": c #5A5A5A",
"> c gray36",
", c gray39",
"< c gray40",
"1 c #686868",
"2 c #6F6F6F",
"3 c gray44",
"4 c gray46",
"5 c #7B7B7B",
"6 c gray49",
"7 c #818181",
"8 c #868686",
"9 c gray54",
"0 c #8E8E8E",
"q c #909090",
"w c gray59",
"e c #989898",
"r c #9F9F9F",
"t c #A0A0A0",
"y c #A5A5A5",
"u c #AAAAAA",
"i c gray68",
"p c gray69",
"a c #B7B7B7",
"s c gray73",
"d c #BCBCBC",
"f c #C1C1C1",
"g c gray78",
"h c #C8C8C8",
"j c #CECECE",
"k c #D2D2D2",
"l c gray84",
"z c #DADADA",
/* pixels */
"ooooooooooXooXoooooooooooXXooooXooXXooooXXooooXoooooXooooooooooo",
"@@@@@@@@@@@*1434344331<,,:-*@%,,;=====--:;$OO@&=====*&$#@++++@++",
"*********&%2tsssaaaaiytew072=<et8555555608:@@=1555532<>-*%%%%%&%",
"777642<>=**6sjhgggggdspuur04-2ype9000090e0>##,qteeeewq0987665666",
"sssayw83=@%6shdapappiiytyr82=<eyw0etteq883-##3igsaaasffffdssssss",
"hhgfayq4*O%6sgityytyytwete6,*>0e00ryyye94,*##6fjdppsdfgggggggggd",
"saaput92&O$6sgyqeeqwee0wyr5:&-5989qwyytw5:&##6fjieeerttrtyuupitr",
"uuuyye6,%+%5adtqqq00qq0qte3;%&<37778qew01-$@@5dgt9990900qqeeyr08",
"rtyyr02=+O%4pstq0099999qte2=@$-,4432221,=%+o@5sfr989qqqwrtreyr95",
"0wew06:$O+%3uaye0089qqqeyw2&+O&;<<:-=&%$@+oO#4adr899qwwweeqqeq73",
"66752>*#oO%2tpureq0qrttyye3*++%&&%$@++OOOoo+&5iae899000985434311",
",,,>=&$+o+&2ritreq0qettyye3*+O%=:<356552,=%$*4tu076665542,:::;;;",
"%$$$@+OOX@*3eywq00qqqqqwyw3&@O%,8tafhhdpw5>*-10051,,>>;-=*&&$$$#",
"XXXXooOOO#*1qrwqqqwq0990ew2&+O%3ydhkzlhst8<**:33>;*&%%#@@#@@OOOO",
"@@++@+@@@$*<7wrttrq99899q7,&+O%5ahfssaitw6>$%%**%##@+++O@##@@@@@",
":>>>>>:>:;=:5qyuyrq9888896,&+O%7fkdiyteq84;@@&::=%@#%*;::>>>:>>>",
"9889889895-*10iprqw0768996,&+O%8hlsutwq973=##>804,==,37889989889",
"rewwwweeq6-$>7yiw0ww089884>*++%7fjiew0864<*#@<ey03:,9eyuytrrrrrr",
"ytw90wtr82&#-3wrq0ryte0762>&++%3ry066543<;&@#2yiw5:4pggfsaiuuuuu",
"ytq98qte6>$+&,7978qeeq741>=%OO#:672<,,<>=%#@%3upw6>7fkgdapuyyyyy",
"utq99qte3-@+&:12<,222<:=&$+OXXO$-:-&%$%#++o#-4ryq6>7fjirewwq99qw",
"te988qte2&++&-::=&&&%$#++OO+O++$=>12<>;=$Oo=39rt05>7dgt898986688",
"q0768qte2&++&--*#+++OooO#%$%%%%-38ryrw05:&#<riur93:6dgr998975679",
"999880rw2*+*463<:;:::=$-47897668qysdspyq2*%3ifir81:5adtq9989890q",
"80ee0908,%O1istq99qq95>4ughhgdsaassdddsy4=$4dhpr71;4psur0990ertt",
"69qw9663;$O4djayeerrw8<8fzzzkhgdssaasssy4*$6fkse7<-2eueq7557qwee",
"12442<>;&@o4djayq0qq97,7fkfssiteyurrupir3&$7hlsr5>-:1311,:>,1122",
";;;;;-*%#@+5fjptw90985:6fhayyr98er00rttq<&#8kzse4:;*$$%&%&%%&%&&",
"@#@##@@+O+$6djiewwqq82-6fhityt0900990qq7,%#7jzde3--=$#####@+++++",
"@&:<444342>8ghpeeerw71=4shpyrr0888898996:%$7hlse3-=:442<:;*&$#++",
";10yadsssy70fjpteete7<%2pfdieq9867889885:##6gkaw2=*5iayw843<>-*%",
",5tsgjhgga0whksytrte6,$>eagdy09866788974-##6fhae2-*6djsyw8752>=&",
">5tppapaay8wklsuytw93;#&2ejkpr0887668851=##6djae2=*6shayq9095<=#",
",5tiuuuyrq5wjlayytq72;#+&0hlste09876874,*##6fhiq1=*6agptq0wq72=#",
",4eiuyut0610gjayrew92;#+&8gjsytrq988872>&#%6dfr4>**5idptq0qq72=@",
">5ruuyte93>7dhayrrw02;#+&6agayuywqq0961;%#&3ui7>-**2tiye080061=#",
",5riuyw095>5pdpyytr03;#+%3uaiyuyytteq6<=$#&,78,****,6087667651=#",
">5tiutq985,4yaiuyyr03;@O$<qttrreeerw83>*$$%-,>*$&=*;<22112122,*@",
">5tputq864>2qyuyuyyw4;#o@;58008664431>-&$#%&**&&*=**-;*&****=*%@",
",6tiutw984>,7qtuyuyw4;@X+&>2541,>:;;=*&%#$%&%&-:>>:;;-=&&*****$#",
",5tiutewq8<;,5ryuyrq3;@Xo#=;-;=*&&&%%$###$%**;<22222221112121<*#",
">5riuyrew9<**2wuyre93;#.X@=>123323223333345689wrrrrrrrtrewwq93-+",
">5euuyeee9>#&2wyreq72;#XX$,7ruuiiuuuiuuuiiasfgkkkkkkkkkkhffpr7;O",
",4eytrwwq8-O%1qteq951;$o.$,0pgddsddddddssfhhhjlzllllkkkkjggar7-o",
",3qew00905=+%<0e09741;%OX#-7sgsaapaapaaaaasaappiyyuyrrrrtttw82*o",
":290887883*O$,8q9753<:&@o+&7shsipiiiiiiiiiiuytwq0887554588974,%o",
"=,6976545<&+%>786542<;&+XO%7djauuuuuuiuuuuuyeq009865545679974,%o",
"*;2421111>%@%:464331>;&+XO$6fjpyyytyttttrrttw0988764455688874,%X",
"**=***;::-$#&-<1<<<,:=%+Xo@6fhirerreqqq090eerr086654556888753,$.",
"*%@OO@*=*&$#%&-;;;--*%#+XX+4adtqq00q0009670wre975445568887532,$.",
"&&&%%%&&##@#$##@##@#@OoX.Xo,et966557qwqq97880985555578886532<:# ",
"&;24677631<,-&#+ooooXXooooo-562<<<<379986533553323335666422<,-@.",
"&2epdgfsiye03>-&#@@+@+@++@@%-:-***=-><1<<>>,,,>>:>>>,,,>>:::;*#X",
"*4phhjjgdapur087665665665432<,,,:-&$%&*=*==**********&*******&#+",
"*6djdssattpdfgfffddffdfdspiyrww073:&%#$%$$$$$$#@@@@@+++++@@#$$%%",
"*7fhauutwwusgjhhgghgghghggfauuyt04>&$-241,:-=&#@+@+++O+++O+@#%**",
"*6shayte09wtipyrrerreeryiapiuuue6,*%%3iatq742>-&%%%%$%$%%%%&**==",
"*4isyeq97768ww8644654558weeeeee03-%#%6sgayeq95,>465321<<,,>>::=&",
"*<qw743322124321<<111<1244455452,*#@&3yspiuytw25ispurq0888653,&O",
"&:33>;;;;-;;;;;;;;;;;;;;;;-;;;;-*%OO%10rtttttq17shsauyreeww972&.",
"**=&$#########@##@##@#@#@#@##@#@@OXO$;13467762:2tpyyuyeweetw04*.",
"*&#OOOOOOOOooXXooooXooooXXXoXXoXXXo+$&=;:,<,>-&,9w09q00899q071&.",
"==**%%%%%%%$@@+@@+@+@++@+@+@+@+@+@+##%*---=**&&=<1:;::;--;::-%O.",
"==-=*&&**&*%$@###@#######@######@###@%*--*%@#@+&**O.  . ..     ."
};
